<svg width="18" height="18" viewBox="0 0 18 18" fill="none" xmlns="http://www.w3.org/2000/svg">
<g clip-path="url(#clip0_39_608)">
<path fill-rule="evenodd" clip-rule="evenodd" d="M15.3001 5.39982C16.7913 5.39982 18 4.19103 18 2.69991C18 1.20879 16.7913 0 15.3001 0C13.809 0 12.6002 1.20879 12.6002 2.69991C12.6002 3.06377 12.6722 3.41081 12.8027 3.72758C11.3042 4.56492 9.3044 5.55823 7.5225 6.41279C6.5795 6.86503 5.7046 7.27507 5.00853 7.59787C4.53492 6.81892 3.67817 6.29865 2.69991 6.29865C1.20879 6.29865 0 7.50744 0 8.99856C0 10.4897 1.20879 11.6985 2.69991 11.6985C3.65616 11.6985 4.49631 11.2013 4.97599 10.4514L12.7723 14.3496C12.6611 14.6452 12.6002 14.9656 12.6002 15.3001C12.6002 16.7912 13.809 18 15.3001 18C16.7913 18 18 16.7912 18 15.3001C18 13.809 16.7913 12.6002 15.3001 12.6002C14.6972 12.6002 14.1403 12.7978 13.691 13.1319L5.48635 9.02961C6.20959 8.69486 7.15047 8.25473 8.17111 7.76525C10.0276 6.87493 12.1755 5.80838 13.7537 4.91338C14.1917 5.21995 14.7249 5.39982 15.3001 5.39982Z" fill="white"/>
</g>
<defs>
<clipPath id="clip0_39_608">
<rect width="18" height="18" fill="white"/>
</clipPath>
</defs>
</svg>
