<?xml version="1.0" standalone="no"?>
<!DOCTYPE svg PUBLIC "-//W3C//DTD SVG 20010904//EN"
 "http://www.w3.org/TR/2001/REC-SVG-20010904/DTD/svg10.dtd">
<svg version="1.0" xmlns="http://www.w3.org/2000/svg"
 width="84.000000pt" height="84.000000pt" viewBox="0 0 84.000000 84.000000"
 preserveAspectRatio="xMidYMid meet">

<g transform="translate(0.000000,84.000000) scale(0.100000,-0.100000)"
fill="#000000" stroke="none">
<path d="M216 690 c-46 -9 -68 -34 -60 -67 5 -20 2 -23 -20 -23 -40 0 -74 -28
-86 -68 -10 -38 0 -62 26 -62 10 0 14 -13 14 -42 0 -52 19 -92 45 -96 11 -2
28 -11 37 -19 15 -13 22 -14 50 -3 18 7 41 20 51 28 15 14 20 13 41 -7 13 -12
32 -22 42 -22 29 -1 93 18 109 31 18 15 30 112 17 136 -8 14 -5 25 14 47 34
40 30 58 -19 98 -51 43 -79 54 -106 40 -13 -8 -22 -8 -26 -1 -6 10 -72 41 -84
39 -3 -1 -24 -5 -45 -9z"/>
</g>
</svg>
